<?xml version="1.0" encoding="utf-8"?>
<!-- Generator: Adobe Illustrator 24.1.0, SVG Export Plug-In . SVG Version: 6.00 Build 0)  -->
<svg version="1.1" id="Calque_1" xmlns="http://www.w3.org/2000/svg" xmlns:xlink="http://www.w3.org/1999/xlink" x="0px" y="0px"
	 viewBox="0 0 1920 1080" style="enable-background:new 0 0 1920 1080;" xml:space="preserve">
<style type="text/css">
	.st0{fill:#F2E6E9;}
	.st1{fill:#C3BED0;}
	.st2{fill:none;stroke:#707070;}
	.st3{fill:#D1D3E4;}
	.st4{fill:#FEF8F2;}
	.st5{fill:#464E9F;}
</style>
<path class="st0" d="M549.81,250.31c82.88-54.89,166.87-56.56,201.12-57.13c149.29-2.49,252.98,78.37,296.66,112.44
	c70.51,54.99,155.49,121.27,170.81,235.84c16.33,122.14-51.06,261.71-153.77,302.29c-94.74,37.44-134.73-35.16-309-32.39
	c-171.02,2.71-219.52,74.01-291.28,33.12c-97.04-55.29-93.22-234.01-80.97-314.67C388.12,498.57,411.97,341.6,549.81,250.31z"/>
<g id="Groupe_1" transform="translate(618 226)">
	<g id="Rectangle_1" transform="translate(-618 63)">
		<rect x="-333.56" y="25.93" class="st1" width="224" height="81.37"/>
		<rect x="-333.22" y="26.19" class="st2" width="223.32" height="80.84"/>
	</g>
	<g id="Rectangle_2" transform="translate(-618 352)">
		<rect x="-333.56" y="-109.37" class="st3" width="224" height="81.37"/>
		<rect x="-333.22" y="-109.1" class="st2" width="223.32" height="80.84"/>
	</g>
	<g id="Rectangle_3" transform="translate(-618 877)">
		<rect x="-333.56" y="-355.15" class="st4" width="224" height="81.37"/>
		<rect x="-333.22" y="-354.88" class="st2" width="223.32" height="80.84"/>
	</g>
	<g id="Rectangle_4" transform="translate(-618 624)">
		<rect x="-333.56" y="-236.71" class="st0" width="224" height="81.37"/>
		<rect x="-333.22" y="-236.44" class="st2" width="223.32" height="80.84"/>
	</g>
	<g id="Rectangle_5" transform="translate(-618 -226)">
		<rect x="-333.56" y="161.22" class="st5" width="224" height="81.37"/>
		<rect x="-333.22" y="161.49" class="st2" width="223.32" height="80.84"/>
	</g>
</g>
</svg>
