<?xml version="1.0" encoding="utf-8"?>
<!-- Generator: Adobe Illustrator 24.1.0, SVG Export Plug-In . SVG Version: 6.00 Build 0)  -->
<svg version="1.1" id="Calque_1" xmlns="http://www.w3.org/2000/svg" xmlns:xlink="http://www.w3.org/1999/xlink" x="0px" y="0px"
	 viewBox="0 0 5787 3650" style="enable-background:new 0 0 5787 3650;" xml:space="preserve">
<style type="text/css">
	.st0{fill:#F2E6E9;}
	.st1{fill:#C3BED0;}
	.st2{fill:none;stroke:#707070;}
	.st3{fill:#D1D3E4;}
	.st4{fill:#FEF8F2;}
	.st5{fill:#464E9F;}
</style>
<path class="st0" d="M870,393C1380.4-14,1990.9,8.1,2402,23c665.9,24.1,1109.5,270.8,1921.6,711.3
	C5220.5,1220.7,5668.9,1463.9,5726,1846c87.2,583.2-600.1,1264.8-1293.4,1477.6c-682,209.3-877.6-168.9-1976.9-155.8
	c-1094.1,13-1404.4,356.1-1863.5,159.4C-28.6,3061-4.2,2201.1,74.2,1813c6.3-31.1,10.9-52,18.9-85.4
	C141.2,1527.4,337.7,817.4,870,393z"/>
<g id="Groupe_1" transform="translate(618 226)">
	<g id="Rectangle_1" transform="translate(-618 63)">
		<rect x="-248.6" y="1617.6" class="st1" width="224" height="81.4"/>
		<rect x="-248.2" y="1617.9" class="st2" width="223.3" height="80.8"/>
	</g>
	<g id="Rectangle_2" transform="translate(-618 352)">
		<rect x="-248.6" y="1482.3" class="st3" width="224" height="81.4"/>
		<rect x="-248.2" y="1482.6" class="st2" width="223.3" height="80.8"/>
	</g>
	<g id="Rectangle_3" transform="translate(-618 877)">
		<rect x="-248.6" y="1236.5" class="st4" width="224" height="81.4"/>
		<rect x="-248.2" y="1236.8" class="st2" width="223.3" height="80.8"/>
	</g>
	<g id="Rectangle_4" transform="translate(-618 624)">
		<rect x="-248.6" y="1355" class="st0" width="224" height="81.4"/>
		<rect x="-248.2" y="1355.2" class="st2" width="223.3" height="80.8"/>
	</g>
	<g id="Rectangle_5" transform="translate(-618 -226)">
		<rect x="-248.6" y="1752.9" class="st5" width="224" height="81.4"/>
		<rect x="-248.2" y="1753.2" class="st2" width="223.3" height="80.8"/>
	</g>
</g>
</svg>
