<?xml version="1.0" encoding="utf-8"?>
<!-- Generator: Adobe Illustrator 24.1.0, SVG Export Plug-In . SVG Version: 6.00 Build 0)  -->
<svg version="1.1" id="Calque_1" xmlns="http://www.w3.org/2000/svg" xmlns:xlink="http://www.w3.org/1999/xlink" x="0px" y="0px"
	 viewBox="0 0 1920 1080" style="enable-background:new 0 0 1920 1080;" xml:space="preserve">
<style type="text/css">
	.st0{enable-background:new    ;}
	.st1{fill:#9988BD;}
	.st2{fill:#D1D3E4;}
	.st3{fill:none;stroke:#707070;}
	.st4{fill:#FEF8F2;}
	.st5{fill:#F2E6E9;}
	.st6{fill:#464E9F;}
	.st7{fill:#FFFFFF;stroke:#9988BD;stroke-width:0.75;stroke-miterlimit:10;}
	.st8{fill:#FFFFFF;stroke:#000000;stroke-width:0.75;stroke-miterlimit:10;}
	.st9{font-family:'BodoniSvtyTwoITCTT-Book';}
	.st10{font-size:200px;}
	.st11{font-family:'BodoniSvtyTwoITCTT-BookIta';}
	.st12{font-size:39px;}
	.st13{letter-spacing:9;}
	.st14{letter-spacing:5;}
	.st15{fill:none;stroke:#9988BD;stroke-width:0.75;stroke-miterlimit:10;}
	.st16{fill:#FFFFFF;}
</style>
<g id="Rectangle_1" transform="translate(-618 63)" class="st0">
	<rect x="93.3" y="231.2" class="st1" width="239.7" height="87.5"/>
	<rect x="93.7" y="231.5" class="st1" width="239" height="86.9"/>
</g>
<g id="Rectangle_2" transform="translate(-618 352)">
	<rect x="93.3" y="107.4" class="st2" width="239.7" height="87.5"/>
	<rect x="93.7" y="107.7" class="st3" width="239" height="86.9"/>
</g>
<g id="Rectangle_3" transform="translate(-618 877)">
	<rect x="93.3" y="-117.5" class="st4" width="239.7" height="87.5"/>
	<rect x="93.7" y="-117.2" class="st3" width="239" height="86.9"/>
</g>
<g id="Rectangle_4" transform="translate(-618 624)">
	<rect x="93.3" y="-9.1" class="st5" width="239.7" height="87.5"/>
	<rect x="93.7" y="-8.8" class="st3" width="239" height="86.9"/>
</g>
<g id="Rectangle_5" transform="translate(-618 -226)">
	<rect x="93.3" y="355" class="st6" width="239.7" height="87.5"/>
	<rect x="93.7" y="355.3" class="st3" width="239" height="86.9"/>
</g>
<g>
	<path class="st7" d="M1108.6,212c-136.7,0-247.5,110.8-247.5,247.5S971.9,707,1108.6,707s247.5-110.8,247.5-247.5
		S1245.3,212,1108.6,212z"/>
	<path class="st7" d="M1091.6,233c-131.2,0-237.5,106.3-237.5,237.5S960.5,708,1091.6,708s237.5-106.3,237.5-237.5
		S1222.8,233,1091.6,233z"/>
	<path class="st7" d="M1104.6,246c-127.9,0-231.5,103.7-231.5,231.5S976.8,709,1104.6,709s231.5-103.7,231.5-231.5
		S1232.5,246,1104.6,246z"/>
	<path class="st7" d="M1117.6,239c-127.9,0-231.5,103.7-231.5,231.5S989.8,702,1117.6,702s231.5-103.7,231.5-231.5
		S1245.5,239,1117.6,239z"/>
	<path class="st7" d="M1097.6,239c-127.9,0-231.5,103.7-231.5,231.5S969.8,702,1097.6,702s231.5-103.7,231.5-231.5
		S1225.5,239,1097.6,239z"/>
	<path class="st8" d="M1104.6,239c-127.9,0-231.5,103.7-231.5,231.5S976.8,702,1104.6,702s231.5-103.7,231.5-231.5
		S1232.5,239,1104.6,239z"/>
	<path class="st7" d="M1104.6,239c-127.9,0-231.5,103.7-231.5,231.5S976.8,702,1104.6,702s231.5-103.7,231.5-231.5
		S1232.5,239,1104.6,239z"/>
	<text transform="matrix(1 0 0 1 1008.1824 459.9135)" class="st1 st9 st10">S</text>
	<text transform="matrix(1 0 0 1 1082.1941 582.6035)" class="st1 st9 st10">E</text>
	<text transform="matrix(1 0 0 1 1104.4812 394.293)" class="st1 st11 st12 st13">souffle</text>
	<text transform="matrix(1 0 0 1 997.6458 629.3735)" class="st1 st11 st12 st14">dՎquilibre</text>
	<g>
		<path class="st15" d="M1167.6,431.4c0-0.1,7.7-7.3,11.9-2.4c5.5,6.3-2,24.9,4.4,38.7c3.5,7.5,7.1,4.8,14.3,16.8
			c4,6.7,5.9,12.5,6.7,11.8c1-0.8-0.3-10-2.5-17.1c-1.1-3.5-1.6-3.9-3.9-10.9c-0.7-2.2-1.2-3.8-2.2-6.1c-0.3-0.6-1.3-3-3.2-5.9
			c-2.4-3.6-4.1-4.5-8.5-12.8c-3.9-7.4-5.1-10.1-8.4-12.1C1171.8,428.6,1167.6,431.5,1167.6,431.4z"/>
		<path class="st15" d="M1241.6,453.1c-15.3,17.9-23,33.5-27.2,44.8c-1.1,3-3.4,9.6-7.5,17.9c-5.4,11-10.8,18.8-14.5,23.6"/>
		<path class="st15" d="M1187.8,415c4.1,4.9,6.1,9.9,7.1,13.5c2.4,8.1,0.8,11.7,3.4,27.5c0.5,2.8,1.2,6.7,2.4,13.2
			c0.6,3.2,1.5,8.3,2.2,15.2c0,0.4,0,0.3,0.1,0.5c0.7,7.3,2.5,12,3.2,14.2c1,3.2,1.8,8.3,0.7,16.8"/>
		<path class="st15" d="M1184.7,443.6c0.9,5.6,1.9,10.4,2.9,14.2c0,0,1.7,6.7,4.1,13.3l0,0c0,0,4.1,8.5,4.6,9.6"/>
		<path class="st15" d="M1241.6,453c-0.3-0.6-1.5-0.1-7.7,5.6c-7.4,6.8-11.1,10.2-13.1,13c-8.1,11.6-11.8,31.8-9.2,35
			c2.1,2.6,8.9-5.4,13-12.6c3.9-6.9,3.4-9.8,8.5-21.9C1238.1,460.1,1242.2,454.3,1241.6,453z"/>
		<path class="st15" d="M1190.8,432.9"/>
		<path class="st15" d="M1186.7,415.6c-0.5,1.2,1.6,4.2,3.4,8.4c3.5,8.4,2.4,13.5,4.4,31.4c0.9,7.6,2.4,19,6.1,31.4
			c1.5,5,3.8,12.9,5.4,12.3c1.9-0.7,1.8-13.3,1.7-17.4c-0.1-9.9-1.3-17.4-1.7-19.6c-2-12.1-3.5-10.2-6.5-24.7
			c-1.9-9.3-2.4-12.6-4.9-16.4C1191.7,416.3,1187.4,414.1,1186.7,415.6z"/>
	</g>
	<g>
		<path class="st15" d="M1037.6,347.4c0,0-4.1-2.8-8.7-0.1c-3.2,2-4.4,4.7-8.4,12.1c-4.4,8.3-6.1,9.2-8.5,12.8
			c-1.9,2.9-3,5.3-3.2,5.9c-1,2.3-1.5,3.9-2.2,6.1c-2.3,7-2.8,7.4-3.9,10.9c-2.2,7.2-3.5,16.3-2.5,17.1c0.8,0.7,2.7-5.1,6.7-11.8
			c7.2-12,10.8-9.3,14.3-16.8c6.5-13.8-1.1-32.3,4.4-38.7C1029.9,340.1,1037.6,347.4,1037.6,347.4z"/>
		<path class="st15" d="M1013,455.5c-3.8-4.9-9.2-12.6-14.5-23.6c-4-8.3-6.4-15-7.5-17.9c-4.2-11.4-11.9-26.9-27.2-44.8"/>
		<path class="st15" d="M998.4,431.9c-1.1-8.5-0.3-13.6,0.7-16.8c0.7-2.3,2.6-6.9,3.2-14.2c0-0.2,0-0.1,0.1-0.5
			c0.6-7,1.6-12,2.2-15.2c1.2-6.5,1.9-10.3,2.4-13.2c2.6-15.8,1-19.4,3.4-27.5c1-3.5,3-8.6,7.1-13.5"/>
		<path class="st15" d="M1009,396.7c0.5-1.1,4.6-9.5,4.6-9.6l0,0c2.4-6.7,4.1-13.3,4.1-13.3c1-3.8,2-8.5,2.9-14.2"/>
		<path class="st15" d="M963.7,369c-0.7,1.3,3.4,7.1,8.5,19.2s4.6,15,8.5,21.9c4.1,7.2,10.9,15.2,13,12.6c2.5-3.2-1.1-23.3-9.2-35
			c-1.9-2.8-5.7-6.2-13.1-13C965.2,368.8,964,368.4,963.7,369z"/>
		<path class="st15" d="M1014.5,348.9"/>
		<path class="st15" d="M1018.5,331.6c-0.6-1.4-5,0.8-8,5.4c-2.5,3.8-3,7.1-4.9,16.4c-2.9,14.5-4.4,12.6-6.5,24.7
			c-0.4,2.2-1.6,9.7-1.7,19.6c-0.1,4.1-0.2,16.7,1.7,17.4c1.6,0.6,4-7.3,5.4-12.3c3.7-12.4,5.3-23.8,6.1-31.4
			c2-17.8,0.9-23,4.4-31.4C1016.9,335.7,1019,332.7,1018.5,331.6z"/>
	</g>
	<circle class="st16" cx="1234.1" cy="212" r="7.5"/>
	<circle class="st16" cx="1348.1" cy="339" r="7.5"/>
	<circle class="st1" cx="1320.6" cy="437.5" r="5"/>
	<circle class="st1" cx="1310.6" cy="420.5" r="5"/>
	<circle class="st16" cx="1368.6" cy="384.5" r="3"/>
	<circle class="st16" cx="1360.6" cy="363.5" r="5"/>
	<circle class="st16" cx="1365.6" cy="432.5" r="3"/>
	<circle class="st1" cx="1323.6" cy="491.5" r="3"/>
	<circle class="st16" cx="1365.6" cy="491.5" r="5"/>
	<circle class="st16" cx="1365.6" cy="512.5" r="5"/>
	<circle class="st16" cx="1355.6" cy="523.5" r="3"/>
	<circle class="st1" cx="1263.1" cy="609" r="7.5"/>
	<circle class="st1" cx="1286.6" cy="591.5" r="5"/>
	<circle class="st16" cx="1296.6" cy="638.5" r="5"/>
	<circle class="st16" cx="1283.6" cy="652.5" r="5"/>
	<circle class="st16" cx="1270.6" cy="665.5" r="5"/>
	<circle class="st16" cx="1162.6" cy="717.5" r="5"/>
	<circle class="st16" cx="1181.6" cy="709.5" r="5"/>
	<circle class="st16" cx="1288.6" cy="668.5" r="5"/>
	<circle class="st16" cx="1193.6" cy="712.5" r="3"/>
	<circle class="st16" cx="1190.6" cy="699.5" r="3"/>
	<circle class="st1" cx="1246.6" cy="621.5" r="3"/>
	<circle class="st16" cx="1255.6" cy="673.5" r="3"/>
	<circle class="st1" cx="1217.6" cy="289.5" r="5"/>
	<circle class="st1" cx="1234.6" cy="294.5" r="3"/>
	<circle class="st1" cx="1228.6" cy="304.5" r="3"/>
	<circle class="st1" cx="1104.6" cy="252.5" r="3"/>
	<circle class="st16" cx="1062.6" cy="201.5" r="5"/>
	<circle class="st16" cx="1047.6" cy="193.5" r="3"/>
	<circle class="st16" cx="1044.6" cy="204.5" r="3"/>
	<circle class="st16" cx="1013.6" cy="219.5" r="3"/>
	<circle class="st16" cx="935.1" cy="255" r="7.5"/>
	<circle class="st16" cx="953.6" cy="240.5" r="5"/>
	<circle class="st1" cx="937.6" cy="323.5" r="5"/>
	<circle class="st16" cx="912.6" cy="249.5" r="5"/>
	<circle class="st16" cx="879.6" cy="328.5" r="3"/>
	<circle class="st1" cx="932.6" cy="338.5" r="5"/>
	<circle class="st1" cx="948.6" cy="333.5" r="3"/>
	<circle class="st1" cx="897.1" cy="427" r="7.5"/>
	<circle class="st1" cx="889.6" cy="447.5" r="5"/>
	<circle class="st1" cx="907.6" cy="443.5" r="3"/>
	<circle class="st16" cx="829.6" cy="464.5" r="5"/>
	<circle class="st16" cx="834.6" cy="529.5" r="3"/>
	<circle class="st1" cx="896.6" cy="532.5" r="5"/>
	<circle class="st16" cx="846.1" cy="552" r="7.5"/>
	<circle class="st1" cx="932.6" cy="606.5" r="5"/>
	<circle class="st1" cx="945.6" cy="624.5" r="5"/>
	<circle class="st16" cx="901.6" cy="638.5" r="5"/>
	<circle class="st16" cx="891.6" cy="624.5" r="3"/>
	<circle class="st16" cx="916.6" cy="652.5" r="3"/>
	<circle class="st1" cx="1065.1" cy="681" r="7.5"/>
	<circle class="st1" cx="1086.6" cy="688.5" r="5"/>
	<circle class="st16" cx="1072.6" cy="717.5" r="5"/>
</g>
</svg>
