<?xml version="1.0" encoding="utf-8"?>
<!-- Generator: Adobe Illustrator 24.1.0, SVG Export Plug-In . SVG Version: 6.00 Build 0)  -->
<svg version="1.1" id="Calque_1" xmlns="http://www.w3.org/2000/svg" xmlns:xlink="http://www.w3.org/1999/xlink" x="0px" y="0px"
	 viewBox="0 0 1920 1080" style="enable-background:new 0 0 1920 1080;" xml:space="preserve">
<style type="text/css">
	.st0{fill:#FEFEFE;}
	.st1{fill:#F2E0E4;}
	.st2{fill:#FDFDFD;}
	.st3{fill:#CACBE0;}
	.st4{fill:#FCFCFD;}
	.st5{fill:#CBCCE0;}
	.st6{fill:#C6C7DD;}
	.st7{fill:#C5C7DD;}
	.st8{fill:#E4E4EF;}
	.st9{fill:#DADBE9;}
	.st10{fill:#E1E2ED;}
	.st11{fill:#F2F2F7;}
	.st12{fill:#F3F3F8;}
	.st13{fill:#F6F7F9;}
	.st14{fill:#E4E5EF;}
	.st15{fill:#FDFDFE;}
	.st16{fill:#CCCDE1;}
	.st17{fill:#F9F9FB;}
	.st18{fill:#F1F1F6;}
	.st19{fill:#EEEFF5;}
	.st20{fill:#E6E7F1;}
	.st21{fill:#F4F4F8;}
	.st22{fill:#C3BED0;}
	.st23{fill:none;stroke:#707070;}
	.st24{fill:#D1D3E4;}
	.st25{fill:#FEF8F2;}
	.st26{fill:#F2E6E9;}
	.st27{fill:#464E9F;}
</style>
<g>
	<path class="st0" d="M1097.11,444.51c6.19-0.2,12.38-0.36,18.58-0.43c-0.08-3.78-0.15-7.56,0.21-11.29
		c0.47-4.88-0.94-5.79-5.77-5.78c-11.82,0.02-23.64,0.02-35.46,0.03C1082.85,432,1090.45,437.8,1097.11,444.51z"/>
	<path class="st0" d="M697.24,459.9c2.11,0.54,4.5,0.95,6.93,1.26c-0.87-1.22-2.99-4.16-4.53-3.97
		C698.65,457.3,697.86,458.49,697.24,459.9z"/>
	<path class="st0" d="M656.28,437.91c-3.85-0.04-7.7-0.09-11.55-0.17c1.4,1.6,2.6,3.37,3.59,5.31
		C650.8,441.12,653.46,439.4,656.28,437.91z"/>
	<path class="st0" d="M733.08,458.28c0.37-0.39,0.53-0.47,0.44-1.5c-0.1-1.09-0.73-2.37-1.35-3.44c-1.99-3.44-5.29-5.33-9-6.56
		c-1.23-0.41-2.85-0.84-4.65-1.19c-0.27,0.29-0.52,0.59-0.76,0.9c-0.51,1.4-1.15,2.63-1.89,3.71c-1.14,3.77-0.46,7.84,0.41,11.76
		C721.89,462.08,729.59,461.92,733.08,458.28z"/>
	<path class="st1" d="M1104.69,567.14c0.15,1.14,0.35,2.27,0.58,3.39c0.71,0.56,1.44,1.1,2.17,1.61c0.13-0.65,0.27-1.29,0.4-1.94
		C1106.82,569.17,1105.76,568.15,1104.69,567.14z"/>
	<path class="st2" d="M695.37,758.33c-7.83,3.38-16.19,3.96-23.69,0.51c-12.31-5.66-25.76-7.51-38.18-13.51
		c-10.1-4.87-20.92-9.16-31.29-13.87c-11.13-5.06-21.61-11.57-32.23-17.7c-2.34-1.35-4.73-3.41-4.3-6.76
		c0.42-3.24,2.9-4.94,5.62-5.71c16.88-4.73,33.76-10.79,51.52-8.99c15.51,1.57,30.94,0.57,46.4,1.2c4.72,0.19,9.25-0.46,14.16-2.13
		c-2.97-4.3-6.61-6.87-11.32-8.94c-26.2-11.51-46.57-28.64-56.27-56.91c-3.65-10.64-7.95-20.87-8.77-32.25
		c-0.25-3.52-0.96-7.01-0.02-10.43c1.16-4.2,1.09-8.24,0.1-12.46c-0.63-2.69-0.81-5.63-0.47-8.36c0.87-6.85,5.33-9.78,11.95-8.11
		c14.74,3.72,27.63,11.13,39.69,20.11c1.48,1.1,2.77,3.16,4.8,1.93c2.25-1.36,0.58-3.36,0-5c-5.06-14.37-7.04-29.42-9.9-44.28
		c-1.66-8.59,2.37-16.96,0.62-25.8c-0.53-2.67,4.84-6.34,9.81-5.03c21.04,5.52,37.72,18.75,54.67,31.34
		c3.41,2.53,5.76,6.55,9.42,9.21c3.45,2.5,5.18,1.95,5.68-2.04c3.02-23.95,16.57-42.83,30.09-61.57c6.55-9.08,14.25-8.12,19.67,1.72
		c2.51,4.55,6.65,7.81,8.83,12.64c1.3,2.88,4.25,2.17,6.82,1.05c6.21-2.69,12.09-6.01,18.56-8.31c5.63-2,6.86-8.51,8.7-13.83
		c0.81-2.33,0.22-5.35,3.32-6.51c1.47,0.63,2.38,1.72,2.68,3.29c-0.64,12.47-4.29,22.57-18.07,26.45
		c-6.88,1.94-12.82,6.55-19.58,9.12c-3.83,0.66-5.41-2.08-7.02-4.71c-3.32-5.41-6.94-10.62-10.87-15.6
		c-1.86-2.36-4.28-3.74-6.41-0.92c-14.68,19.55-30.12,38.8-30.53,65.05c0.01,3.6,0.02,7.19,0.02,10.78
		c-1.18,8.26,2.85,16.07,2.53,23.5c1.93-9.48,5.6-19.26,10.77-28.46c5.23-9.3,8.04-9.98,17.29-4.11
		c5.95,3.78,11.69,7.85,17.02,12.49c6.24,5.43,6.68,5.33,12.15-1.08c1.22-1.42,2.31-2.99,4.18-3.66c0.69-0.16,1.39-0.16,2.09-0.04
		c2.87,0.82,3.17,3.89,5.2,5.96c3.08-1.01,4.04-4.16,5.98-6.29c3.93-4.3,5.89-4.48,9.58,0.07c7.43,9.16,13.42,19.31,18.5,29.88
		c7.55,15.69,13.91,31.84,14.6,49.6c-0.03,5.62-0.14,11.23,0.87,16.8c-0.01,1.93-0.78,3.72-1,5.61
		c-4.02,13.23-6.83,26.77-10.19,40.18c-1.65,3.81-0.51,7.98-1.48,11.87c-0.3,1.4-0.81,2.74-1.07,4.16
		c-2.21,7.03-6.96,12.61-10.87,18.66c-1.03,1.6-2.4,4.1-4.81,2.99c-2.13-0.98-1.66-3.6-1.72-5.68c-0.15-4.87,0.3-9.72-0.57-14.62
		c-2.63-14.82-12.64-22.15-25.94-26.33c-2.9-0.91-5.85-1.65-8.34-3.53c-1.83-1.24-4.02-1.91-5.63-3.52
		c-5.34-12.1-6.52-24.62-3.92-37.53c2.63-6.04,8.05-9.3,13.54-11.65c14.84-6.35,16.13-19.86,17.11-32.74
		c0.64-8.44-1.88-17.13-5.97-25.98c-6.52,10.06-11.21,20.3-14.57,31.13c-2.9,9.39-5.51,18.87-6.41,28.73
		c-0.28,3.03-1.13,5.98-2.59,8.71c-2.8,3.51-3.96,9.25-10.49,7.62c-2.45-7.67-0.1-15.28,0.72-22.8
		c1.54-14.08,5.84-27.53,12.48-40.07c2.34-4.42,1.74-7.24-2.38-10.01c-6.04-4.06-11.48-8.93-17.31-13.28
		c-3.52-2.63-5.68-2.05-7.68,1.85c-5.22,10.17-7.8,21.12-9.74,32.21c-4.42,25.25-3.16,49.99,7.81,73.65
		c8.77,18.93,21.43,34.99,36.63,50.08c0.08-3.18-1.8-4.99-1.83-7.28c0.83-4.11-0.52-7.19-4.37-9.08c-3.68-6.49-6.72-13.21-8.14-20.6
		c0.34-2.84,2.08-3.78,4.73-3.5c1.51,0.25,2.5,1.41,3.75,2.11c5.41,12.18,9.45,24.97,16.79,36.32c4.25,6.58,10.1,11.72,14.79,17.87
		c0.85,1.12,2.19,1.61,3.64,1.93c6.55,1.47,7.95,3.43,5.56,9.51c-2.49,6.34-2.95,12.75-2.44,19.36c0.21,2.76,1.13,5.12,4.34,5.56
		c1.89,0.26,3.9,0.37,5.31-1.14c1.78-1.9,0.06-3.42-0.92-4.96c-2.48-3.91-4.77-7.82-0.16-11.85c0.72-0.33,1.46-0.53,2.24-0.63
		c14.91,1.59,29.7,3.95,44.58,5.7c17.78,2.09,35.46,1.43,53.21,0.49c2.75-0.15,5.61-1.19,7.97,1.19c-3.62,5.58-9.28,6.14-14.95,5.3
		c-11.67-1.72-23.2-1.36-34.9-0.12c-7.84,0.83-15.4-3.28-23.41-3.16c-7.6,0.11-15.18,1.09-22.81-0.53c-3.26-0.69-3,2.12-2.91,4.76
		c0.11,3.48,2.2,8.68-2.42,9.95c-6.04,1.66-12.69,4.41-18.82-0.52c-2.31-1.85-2.56-4.26-2.53-6.94c0.07-6.8-0.08-13.6,0.06-20.4
		c0.07-3.16-0.54-5.81-4-6.35c-3.99-0.62-4.1,3.39-4.09,5.24c0.05,8.53-4.55,10.58-12.17,11.92c-10.59,1.86-20.9,4.86-31.71,2.12
		c-1.07-0.27-2.06-0.89-3.08-1.35c1.16-2.02,3.12-2.86,5.24-3.03c10.01-0.79,19.77-3.32,29.76-4.18c2.16-0.08,4.36,0.81,5.32,0.45
		c-0.35,0.17-1.95-0.47-3.53-0.38c-28.97-6.82-54.3-20.54-76.36-40.35c-3.64-3.27-7.71-5.32-12.32-6.43
		c-27.34-6.59-54.96-9.01-83.09-6.66c-16.41,1.37-32.7,3.04-48.7,6.98c-2.46,0.61-5.14,0.75-7.87,3.41
		c6.58,4.7,13.36,8.71,20.26,12.37c28.93,15.38,58.85,28.21,91.33,34.17C690.28,755.21,693.53,755.3,695.37,758.33z"/>
	<path class="st2" d="M830.83,462.43c-0.48-0.96-0.96-1.92-1.44-2.88c1.34-0.62,2.24-1.59,2.74-3.02c1.36-3.87,2.55-1.92,4.12,0
		c4.33,5.28,4.06,12.24,6.86,18.09c3.26,6.82,8.72,8.08,14.23,2.76c2.02-1.95,3.94-4.02,5.7-6.21c4.68-5.81,9.7-6.26,14.55-0.75
		c11.95,13.6,20.94,29.21,28.25,45.57c2.7,6.03,3.99,13.37,3.98,20.45c0,1.42,0.01,3.01,1.48,3.69c1.68,0.79,2.45-0.82,3.37-1.78
		c10.69-11.18,22.07-21.8,35.59-29.23c9.07-4.99,18.38-10.23,28.69-12.68c7-1.66,9.17,2.09,10.29,8.93c2.45,15-1.9,29.15-3.13,43.68
		c-0.65,7.67-3.61,14.46-6.27,21.43c-0.79,2.06-1.72,4.37,0.13,5.88c2.56,2.09,3.38-1.3,4.92-2.31
		c13.42-8.71,26.69-17.75,42.76-21.07c5.23-1.08,10.19,3.7,10.49,10.36c0.68,15.49-0.52,30.78-4.91,45.79
		c-3.82,13.06-8.2,25.79-15.84,37.23c-10.58,15.84-25.72,26.49-42.14,34.88c-5.61,2.87-10.5,5.83-16.3,10.49
		c19.98,2.32,38.51,2.5,57.16,0.6c13.92-1.42,27.37,2.21,40.79,5.32c4.32,1,8.47,2.64,12.97,2.92c3.36,0.21,6.68,0.94,7.67,4.85
		c0.97,3.81-1.19,6.57-4.1,8.23c-9.09,5.18-18.14,10.57-27.7,14.74c-4.28,1.87-8.34,4.34-12.09,6.62
		c-11.58,7.03-24.31,11.15-36.82,15.41c-12.5,4.25-25.14,8.71-38.36,10.61c-4.18,0.6-8.43,0.15-11.99-2.69
		c1.49-3.58,4.94-3.14,7.81-3.67c39.82-7.39,75.94-23.93,110.42-44.54c0.79-0.47,1.59-0.98,1.96-2.11
		c-0.72-2.13-2.91-1.91-4.57-2.32c-43.05-10.53-86.28-11.95-129.73-2.5c-7.5,1.63-13.8,4.84-19.63,10.17
		c-19.99,18.25-43.98,29.31-69.77,36.74c-1.99,0.57-4.11,1.14-6.2,0.13c-2.46-2.43-1.27-4.9-0.09-7.37c1-1.62,2.33-2.92,3.9-3.98
		c16.46-6.3,32.6-13.31,47.62-22.62c23.28-14.43,42.96-32.64,57.18-56.23c11.17-18.54,15.45-39.09,16.75-60.44
		c0.21-3.4-1.23-4.15-4.15-3.62c-16.3,2.96-31.88,7.9-46.15,16.53c-2.84,1.72-4.37,4.04-4.44,7.44
		c-0.69,33.73-15.37,61.82-35.43,87.78c-5.91,7.65-12.83,14.33-19.76,21c-2.04,1.96-4.29,3.7-7.41,3.54
		c-1.67-0.42-2.37-1.65-2.7-3.19c-0.32-2.33,0.24-4.42,1.78-6.22c0.96-1.05,2.07-1.97,2.94-3.11c13.02-12.94,24.45-27.04,33.19-43.3
		c8.48-15.77,12.9-32.55,13.82-50.31c0.85-16.26-0.93-32.24-5.59-47.88c-1.14-3.82-2.22-7.64-3.77-11.32
		c-4.74-11.28-5.15-11.38-14.76-3.66c-2.19,1.76-4.35,3.59-6.79,4.99c-1.91,1.1-4.04,2.93-6.1,0.09c-0.96-4.15,1.4-7.65,2.21-11.46
		c0.81-2,2.25-3.56,3.56-5.22c3.99-4.09,8.87-6.96,13.81-9.65c5.94-3.23,8.59-2.52,12.3,3.33c5.92,9.33,10.2,19.37,12.06,30.13
		c3.67-12.56,3.73-25.62,2.93-38.7c-0.47-7.59-2.96-14.71-6.13-21.56c-5.74-12.42-13.36-23.73-21.34-34.78
		c-5.2-7.21-5.8-7.02-11.48,0.25c-2.14,2.74-3.77,6.02-7.13,7.65c-14.94-0.12-21.01-5.11-23.06-19
		C834.15,466.58,833.95,463.73,830.83,462.43z"/>
	<path class="st3" d="M803.98,752.59c-12.22,1.91-24.44,3.82-36.66,5.72c-12.11,0.8-24.27,2.64-36.32,2.11
		c-11.86-0.53-23.85,0.19-35.62-2.08c-34.76-5.93-67.19-18.42-98.1-35.05c-8.77-4.72-17.21-10.05-26.88-15.74
		c9.77-5.16,19.24-6.73,28.5-8.17c21.04-3.27,42.27-5.37,63.6-4.38c17.97,0.83,35.77,3.17,53.38,7.23
		c8.74,2.01,13.64,8.6,20.03,13.52c20.84,16.03,43.79,27.87,69.45,34.15C806.27,751.49,804.79,751.86,803.98,752.59z"/>
	<path class="st3" d="M836.43,749.86c30.16-7.81,57.56-20.61,80.35-42.53c6.62-6.36,16.41-6.46,25.04-7.96
		c18.67-3.24,37.54-5.38,56.53-4.4c23.34,1.21,46.56,3.61,69.18,9.98c1.48,0.42,3.25,0.65,4.12,3.07
		c-12.1,7.74-24.69,14.83-37.62,21.2c-22.52,11.09-45.81,20.24-70.47,25.5c-5.69,1.21-11.38,2.41-17.06,3.61
		c-0.47,0.02-0.94,0.04-1.41,0.05c-10.79,2.59-21.92,1.66-32.81,2.18c-12.94,0.61-26.05-1.57-39.03-3.01
		c-11.82-1.31-23.56-3.25-35.34-4.92c-0.7-0.54-1.53-0.96-1.75-1.93C836.23,750.42,836.33,750.14,836.43,749.86z"/>
	<path class="st3" d="M806.71,741.42c-22.26-6.23-42.78-16.35-61.61-29.61c-21.66-15.26-40.4-33.43-52.46-57.58
		c-9.06-18.13-12.12-37.66-13.79-57.55c-0.28-3.38,1.72-3.32,4.02-2.94c17.47,2.9,34.09,8.3,49.61,16.88
		c3.11,1.72,5.48,3.66,5.36,8.1c-0.85,31.02,11.48,57.37,29.89,81.33c10.57,13.77,22.19,26.61,36.48,36.74
		c1.33,0.95,2.8,1.7,4.2,2.55C807.84,740.04,807.27,740.73,806.71,741.42z"/>
	<path class="st3" d="M707.9,690.98c-55.97-16.6-84.54-41.46-95.7-93.56c-2.45-11.45-3.42-22.98-1.62-34.74
		c0.67-4.4,2.55-5.24,6.01-4.15c19.15,6,35.92,15.9,49.78,30.53c1.77,1.87,2.18,3.96,2.25,6.4c1.09,35.92,14.9,66.66,38.26,93.51
		C707.16,689.3,707.29,689.77,707.9,690.98z"/>
	<path class="st3" d="M734.27,601.84c-18.28-9.92-36.69-17-56.91-18.36c-3.49-0.24-4.65-3.08-5.67-5.54
		c-6.94-16.7-11.7-33.91-13.24-52.06c-0.63-7.47-1.14-14.89-1.16-22.37c-0.01-3.94,1.27-4.93,5.13-3.38
		c23.36,9.38,44.01,22.79,61.57,40.87c2.96,3.05,3.79,6.25,3.13,10.78c-2.05,13.9,1.01,27.37,5.12,40.61
		C733.1,595.19,735.02,597.75,734.27,601.84z"/>
	<path class="st3" d="M782.72,680.74c2.81,6.6,5.63,13.21,8.44,19.81c2.5,2.32,3.57,5.36,4.3,8.57c1.45,3.64,2.89,7.28,4.6,11.57
		c-3.14,0.2-4.72-1.44-6.27-2.99c-18.81-18.74-34.63-39.54-41.82-65.54c-8.89-32.17-4.95-63.39,8.74-93.6
		c1.86-4.11,3.52-5.3,7.61-1.8c6.93,5.9,14.46,11.11,21.76,16.57c2.73,2.04,3.86,3.86,1.82,7.53
		c-9.08,16.38-14.23,33.95-14.82,52.77c-0.12,3.95-0.76,7.88-1.16,11.82c0.03,1.01-0.22,1.96-0.68,2.85
		c-1.65,2.86-4.25,4.91-6.41,7.34c-6.05,6.82-4.97,11.92,3.35,15.72c1.9,0.87,3.91,1.52,5.73,2.58
		C781.21,675.02,782.38,677.58,782.72,680.74z"/>
	<path class="st3" d="M737.71,541.29c-0.16-16.99,7.84-31.07,16.33-44.87c4.28-6.96,9.41-13.39,14.1-20.1
		c3.34-4.77,6.49-4.49,9.63,0.18c3.79,5.63,7.66,11.2,11.38,16.87c1.28,1.96,2.05,4.33,4.99,4.3c0.75,0.92,0.77,1.9,0.23,2.93
		c-5.2,2.01-5.87,5.75-4.52,10.7c2.65,9.68,6.06,18.98,10.93,27.82c2.22,4.04,5.88,8.1,3.35,13.48c-1.37,1.57-2.8,3.1-4.1,4.73
		c-6.09,7.66-6.11,7.71-13.58,0.86c-5.71-5.24-12.08-9.57-18.58-13.71c-7.35-4.69-8.4-4.31-12.98,3.42
		c-5.62,9.49-8.71,20.01-12.37,31.96c-3.12-9.42-5.22-17.41-4.8-25.91C738.81,549.72,738.82,545.51,737.71,541.29z"/>
	<path class="st0" d="M856.43,638.89c-1.33,9.26-4.5,17.88-7.67,26.33c-3.79,10.11-3.86,20.57-5.25,30.93
		c-0.25,1.84,0.02,3.92-0.76,5.49c-1.4,2.8-1.74,7.54-5.06,7.64c-3.02,0.09-1.9-4.7-3.28-6.96c-2.81-4.58-5.76-9.09-8.99-13.38
		c-2.94-3.91-0.84-5.48,2.59-6.52c10.98-3.34,10.67-3.32,11.38-14.53c0.52-8.36,2.6-16.63-0.04-25.01
		c-2.02-6.42-7.24-9.14-13.43-6.92c-9.97,3.58-18.81,9.09-27.27,15.33c-2.67,1.96-5.81,2.31-8.37-0.01
		c-2.54-2.29-1.73-5.12-0.05-7.67c1.58-2.39,3.71-4.1,6.2-5.58c5.23-3.11,10.32-6.47,15.4-9.83c2.38-1.57,4.72-3.53,5.34-6.35
		c2.86-13.1,6.65-26.13,3.08-39.77c-1.24-4.73-1.95-9.59-3-14.36c-0.76-3.45,0.41-6.33,3.4-7.64c2.95-1.3,5.08,1.46,6.15,3.56
		c6.49,12.76,14.32,24.69,19,38.58c3.43,10.15,5.98,20.56,9.58,30.63C856.05,634.77,856.1,636.94,856.43,638.89z"/>
	<path class="st3" d="M860.44,556.76c0.1,4.08-2.21,7.52-3.01,11.36c-0.4,1.82-0.49,3.75-1.8,5.27c-3.87,2.59-3.13,6.07-1.82,9.65
		c1.54,4.67,0.95,9.67,2.27,14.37c1.13,4.58,3.67,8.68,4.52,13.35c0.64,4.07-0.23,8.28,1.18,12.28c0.41,1.92,0.59,3.86,0.6,5.83
		c-0.46,2.99,0.87,6.56-2.76,8.52c-2.92-1.81,0.02-5.25-2.03-7.3c-1.2-19.85-8.64-37.73-17.89-54.91
		c-4.31-8.01-9.19-15.76-14.72-23.08c-2.57-3.41-4.18-3.7-6.68-0.05c-2.33,3.41-4.38,7.13-7.77,9.75c-2.92-2.65-1.95-7.13-5.24-9.22
		c1.09-7.05-0.34-13.98-0.91-20.96c0.36-1.1,1.01-1.88,2.22-2.04c4.25,1.39,6.38,5.36,9.66,7.94c3.94,3.1,7.19,2.1,8.14-2.76
		c0.88-4.54-0.2-8.53-3.13-12.46c-5.22-7-1.46-14,1.65-20.43c2.69-5.58,7.9-6.92,13.82-5.37c5.46,1.5,8.16,5.19,8.55,10.72
		c0.07,1.85,0.09,3.7,0.01,5.55c-0.06,4.06-2.19,7.51-3.3,11.26c-0.94,2.52-1.93,5.03-2.43,7.7c-3.58,9.59-2.02,17.82,5.5,25.22
		c3.23,3.17,5.52,4.44,9.26,1.28C855.98,556.87,857.84,554.84,860.44,556.76z"/>
	<path class="st3" d="M837.91,742.79c-0.5,2.36-0.99,4.71-1.49,7.07c0,0,0.04-0.04,0.04-0.04c-1.02,0.94-0.92,1.89-0.02,2.84
		c-1.02,3.87-0.6,7.32,2.46,10.3c1.56,1.52,4.25,3.02,2.52,5.8c-2.34,3.77-6.55,2.65-10.04,3.11c-3.18,0.42-4.03-2.5-4.27-4.61
		c-0.82-7.21-1.45-14.46,1.52-21.47c2.84-6.71,2.73-6.69-3.95-7.88c-1.02-0.18-1.99-1.19-2.79-2
		c-15.76-15.96-27.07-34.44-31.97-56.53c1.89-0.98,3.76-1.15,5.6,0.1c3.28,3.45,8.11,3.77,12.14,4.91
		c17.72,5.02,25.34,22.14,23.31,40.65c-0.18,1.6-0.02,3.24-0.02,6.4c6.02-7.65,10.85-14.47,14.05-22.37
		c1.97-0.45,2.22,1.06,2.68,2.34c0.25,1.33,0.14,2.64-0.18,3.94c-1.09,2.5-1.32,5.29-2.51,7.76c-1.07,1.69-1.69,3.5-1.52,5.52
		c-1.63,1.8-0.81,4.24-1.62,6.26c-0.19,0.6-0.47,1.16-0.81,1.69C839.8,738.56,836.79,739.63,837.91,742.79z"/>
	<path class="st3" d="M785.68,638.52c2.02-26.07,9.48-50.34,24.58-73.81c4.21,14.47,9.22,26.76,5.7,41.56
		c-2.8,11.75-7.43,19.86-18.58,24.54c-4.24,1.78-7.85,5.07-11.75,7.67L785.68,638.52z"/>
	<path class="st3" d="M835.07,666.72c0,0.7,0.02,1.4,0,2.11c-0.18,11.24-4.59,13.98-14.88,8.75c-9.51-4.84-18.77-10.17-28.29-15.37
		c0.18-2.25,2.2-3.1,3.94-4.15c9.01-5.42,18.03-10.82,27.06-16.21c7.54-4.5,9.19-3.8,12.11,5.13
		C835.03,653.55,834.93,660.14,835.07,666.72z"/>
	<path class="st4" d="M846.25,715.99c0.06-1.38,0.12-2.76,0.18-4.14c1.46-1.95-0.39-3.83-0.11-5.76c0.6-4.19-1.34-8.65,1.33-12.62
		c2.21,2.26,1.67,4.53,0.72,5.94c4.43-12.54,7.48-26.44,9.34-40.62c1.17-3.38,1.86-6.83,1.3-10.43c-2.14-5.96-1.22-12.16-1.42-18.27
		c2.28,1.93,1.02,4.64,1.53,6.96c1.56,1.95,0.67,3.84,0.06,5.75c1.52-4.63,3.05-9.26,1.28-14.24c-0.02-1.85-0.04-3.71-0.06-5.56
		c-1.77-4.11,0.48-8.65-1.35-12.76c-1.36-4.23-4-8.03-4.32-12.62c-0.51-3.47-2.1-7.04,1-10.15c3.19,1.45,3.84,4.65,4.83,7.44
		c12.33,34.7,10.59,69.14-2.5,103.19c-2.57,6.69-4.29,13.94-9.65,19.31C847.07,717.89,846.04,717.88,846.25,715.99z"/>
	<path class="st3" d="M794.05,500.57c0.03-0.97,0.06-1.94,0.09-2.91c5.3-4.35,11.52-7.73,17.82-9.35
		c13.99-3.6,17.59-13.63,18.87-25.89c1.47-0.77,3.13-5.42,4.27,0.23c0.18,0.91,0.7,1.82,0.64,2.7
		c-1.09,15.67,9.46,19.94,21.89,22.39c0.12,0.32,0.24,0.65,0.37,0.97c-2.7,7.29-4.57,8.21-11.04,5.37
		c-1.69-0.74-3.34-1.57-5.02-2.31c-6.6-4.57-12.49-3.08-19.06,0.92c-8.44,5.14-15.5,11.83-23.02,18.04
		c-1.54,0.22-2.66-0.52-3.65-1.57C794.84,506.47,792.18,504.08,794.05,500.57z"/>
	<path class="st2" d="M794.05,500.57c0.96,2.77,1.93,5.53,2.89,8.3c4.27,4.09,4.77,10.12,7.73,14.89c0.29,0.61,0.49,1.24,0.64,1.89
		c0.8,1.92-0.86,3.86,0.05,5.78c1.53,7.06,4.7,14.12-0.07,21.16c0,0-0.59-0.01-0.59-0.01s-0.59,0.02-0.59,0.02
		c-0.42-4.74-2.59-8.83-4.97-12.81c-5.79-9.67-9.21-20.26-11.81-31.11C785.83,502.31,787.89,500.07,794.05,500.57z"/>
	<path class="st3" d="M782.72,680.74c-1.12-2.57-3.14-4.25-5.53-5.57c0.89-2.19,1.35-4.4,0.68-6.78
		c-1.95-6.96-2.26-14.19-3.46-21.27c0.51-0.55,1.01-1.1,1.52-1.65c4.49-0.58,6.06-5.24,9.75-6.94c0,0-0.05-0.04-0.05-0.04
		c-0.35,13.36,0.22,26.61,4.29,39.49c-0.92,0.78-1.86,0.79-2.82,0.08C784.96,677.83,782.97,677.87,782.72,680.74z"/>
	<path class="st5" d="M859.09,658.27c-0.75,14.78-3.94,28.95-11.12,42.34c-0.11-2.38-0.21-4.77-0.32-7.15
		c2.44-13.82,6.06-27.35,9.99-40.81C861.39,653.69,859.5,656.17,859.09,658.27z"/>
	<path class="st6" d="M835.07,666.72c-2.36-6.58-2.29-13.16-0.05-19.75C837.13,653.55,837.04,660.13,835.07,666.72z"/>
	<path class="st4" d="M795.46,709.12c-2.23-2.46-3.47-5.41-4.3-8.57C795.79,701.81,797.59,704.48,795.46,709.12z"/>
	<path class="st0" d="M795.04,671.09c1.5,0.34,2.83,0.89,2.69,2.65c-0.09,1.14-1.12,1.32-2.1,1.15c-1.25-0.22-2.16-0.95-2.34-2.21
		C793.11,671.42,794.17,671.28,795.04,671.09z"/>
	<path class="st7" d="M737.71,541.29c2.23,4.22,2.22,8.43,0.01,12.65C737.72,549.73,737.72,545.51,737.71,541.29z"/>
	<path class="st8" d="M859.09,658.27c-0.36-1.9,0.64-4.16-1.45-5.61c0.46-1.43,0.91-2.87,1.37-4.3
		C861.29,651.64,861.12,654.95,859.09,658.27z"/>
	<path class="st9" d="M803.98,752.59c0.46-0.9,0.92-1.8,1.38-2.7c1.72-0.05,3.12,0.63,5.54,2.7
		C807.8,752.59,805.89,752.59,803.98,752.59z"/>
	<path class="st4" d="M787.1,678.05c0.94-0.03,1.88-0.05,2.82-0.08c1.95,0.2,4.2-0.71,5.6,1.51c-1.87-0.03-3.73-0.07-5.6-0.1
		C788.78,679.35,787.73,679.15,787.1,678.05z"/>
	<path class="st10" d="M846.32,706.09c2.02,1.88,1.88,3.8,0.11,5.76c-0.15-1.09-0.29-2.19-1.43-2.77
		C844.93,707.85,845.17,706.77,846.32,706.09z"/>
	<path class="st4" d="M801.72,721.08c1.03,1.87,1.57,2.56,1.75,3.33c0.06,0.25-0.89,1.06-1.3,1c-0.9-0.11-1.67-0.76-1.53-1.81
		C800.72,722.97,801.13,722.39,801.72,721.08z"/>
	<path class="st11" d="M836.44,752.66c-1.09-0.31-3.04,0.72-3.07-1.15c-0.03-1.52,1.82-1.51,3.09-1.69
		c0.47,0.94,0.95,1.88,1.42,2.82C837.41,752.64,836.92,752.65,836.44,752.66z"/>
	<path class="st3" d="M845.02,731.62c13.06-8.78,22.81-20.83,31.88-33.32c14.51-19.97,24.38-42.07,28.27-66.6
		c0.33-2.07,0.7-4.29,0.29-6.29c-1.99-9.7,3.32-14.23,11.28-17.98c13.66-6.44,27.88-10.88,42.65-13.73c2.59-0.5,5.64-0.82,5.2,3.34
		c-2.1,19.79-4.68,39.48-14.11,57.49c-14.21,27.14-35.62,47.41-61.38,63.25c-15.19,9.34-31.06,17.47-48.43,22.2
		c-1.26-1.4-0.98-2.8-0.01-4.21l0.03-0.04C841.83,734.02,842.71,732.07,845.02,731.62z"/>
	<path class="st3" d="M936.77,689.65c3.07-4.37,6.06-8.7,9.14-12.97c17.38-24.09,28.33-50.46,28.77-80.57
		c0.05-3.56,1.64-6.23,3.94-8.71c13.13-14.13,29.45-22.82,47.71-28.41c4.94-1.51,5.88-0.05,6.38,4.67
		c3.06,28.39-4.65,54.17-18.97,78.18c-7.72,12.93-19.66,21.9-32.29,29.73c-12.59,7.8-26.13,13.64-40.21,18.26
		C939.89,690.26,938.62,690.85,936.77,689.65z"/>
	<path class="st3" d="M906.86,602.99c7.13-16.33,11.42-31.58,9.58-47.22c-1.15-9.76,3.06-15.37,9.12-20.91
		c16.23-14.81,34.43-26.51,54.95-34.6c4.13-1.63,5.46-0.85,5.51,3.56c0.32,25.81-3.97,50.65-14.8,74.25
		c-1.78,3.88-4.08,5.16-8.42,5.69c-18.03,2.21-35.22,7.36-50.96,16.72C910.89,601.05,909.85,601.49,906.86,602.99z"/>
	<path class="st3" d="M847.68,717.35c11.79-23.04,18.96-47.53,19.42-73.34c0.29-16.29-2.09-32.65-8.21-48.12
		c-1.03-2.6-1.83-5.3-2.74-7.95c-2.64-3.06-1.65-6.75-1.83-10.24c-0.38-1.88,1.43-3.57,0.46-5.5c0.89-1.36,1.77-2.72,2.65-4.08
		c5.89,0.37,8.72-4.55,12.47-7.56c9.91-7.96,10.52-8.43,15.02,3.12c15.16,38.9,16.14,77.38-4.27,115.22
		c-8.7,16.12-20.32,29.73-32.96,42.68C844.98,720.43,844.98,720.23,847.68,717.35z"/>
	<path class="st3" d="M857.62,487.75c3.49-4.67,6.9-9.4,10.49-13.99c1.29-1.65,2.71-3.37,4.87-0.46
		c13.1,17.67,26.84,35.13,31.39,57.27c3.36,16.36,2.44,32.8-3.65,49.98c-3.17-11.6-6.17-21.97-11.64-31.43
		c-5.27-9.12-6.27-9.51-14.86-3.9c-3.72,2.43-7.33,5.01-10.99,7.53c-3.56-1.95-1.01-4.4-0.25-6.35
		c4.14-10.67,9.82-20.74,12.29-32.05c0.1-0.46,0.28-0.89,0.4-1.34c3.8-13.62,3-15.19-9.97-20.39c-2.95-1.18-6.56-1.41-8.11-4.93
		C857.59,487.69,857.62,487.75,857.62,487.75z"/>
	<path class="st2" d="M857.59,487.69c6.23,2.66,12.45,5.33,18.69,7.96c3.35,1.42,3.97,3.63,3.45,7.29
		c-2.3,15.96-9.18,30.26-15.43,44.83c-0.66,1.54-2.72,2.91-1.06,4.99c0.17,2.1-2.01,2.57-2.8,4.01c-0.88,0.25-1.9,0.3-2.62,0.79
		c-9.59,6.52-9.01,6.02-16.62-2.37c-6.91-7.62-5.83-15.32-3.28-23.71c2.23-0.61,2.78,1.34,3.86,2.5c5.6,6.68,6.44,6.42,12.18,0.1
		c5.75-6.33,8.49-13.9,10.77-21.78c1.58-5.48-3.71-12.66-9.35-13.06c-2.06-0.15-2.89,1.18-3.7,2.64c-1.24,2.25-2.14,4.7-3.69,6.77
		c-2.52,3.39-3.55,1.2-4.46-1.26c0.23-5.17-2.91-7.86-7.15-9.75c-4.95-7.86,3.6-4.93,5.72-7.14c1.29,0.42,2.79,0.56,3.83,1.31
		C851.9,496.13,855.43,493.94,857.59,487.69z"/>
	<path class="st12" d="M840.67,735.76c0,1.4,0.01,2.8,0.01,4.21c-0.92,0.94-1.85,1.88-2.77,2.83
		C833.17,738.23,838.96,737.79,840.67,735.76z"/>
	<path class="st13" d="M845.02,731.62c-1.05,1.78-2.48,3.16-4.32,4.1c0.09-2.69-0.44-5.61,2.77-7.08
		C843.53,729.87,843.79,731,845.02,731.62z"/>
	<path class="st14" d="M847.68,717.35c-0.15,1.41-2.3,2.82,0.01,4.22c-0.53,1.17-1.55,1.47-2.71,1.53
		c-1.32-2.68-0.51-4.99,1.27-7.13C846.73,716.44,847.2,716.9,847.68,717.35z"/>
	<path class="st2" d="M774.41,647.12c1.73,0.62,2.68,1.93,2.63,3.69c-0.17,7.02,1.67,13.74,3.39,20.41c0.92,3.57-0.4,4.08-3.24,3.95
		c-17.96-7.18-18.75-11.28-4.95-25.38C773.04,648.97,773.69,648.01,774.41,647.12z"/>
	<path class="st15" d="M842.09,490.5c0.6,1.75,1.46,4.63-1.72,3.15c-6.18-2.87-3.39,2-3.99,3.99c-10.6,0.03-20.23,12.77-15.15,21.38
		c2.73,4.63,5.69,8.46,5.48,14.1c-0.14,3.87-1.21,6.61-4.87,8.48c-4.19,2.14-5.36-1.58-7.36-3.39c-2.76-2.49-5.16-5.38-7.72-8.1
		c-1.97-0.79-1.69-3.01-2.76-4.37c0-0.45,0.01-0.91,0.01-1.36c-1.6-4.66-4.8-8.84-4.25-14.15c7.71-11.49,19.73-17.48,31.33-23.74
		C834.87,484.45,838.42,489,842.09,490.5z"/>
	<path class="st3" d="M843.53,507.39c1.08,0.05,1.29,3.1,2.99,0.91c0.56-0.72,0.85-1.66,1.28-2.49c5.99-11.29,5.93-11.21,15.98-3.74
		c3.56,2.64,4.39,5.57,3.02,9.71c-2.93,8.88-6.02,17.48-12.4,24.77c-6.06,6.93-9.37,6.67-13.83-2.32c-1.31-2.71-1.16-5.4,0.1-8.07
		c0.34-4.47,6.09-7.77,2.84-13.03C843.52,511.22,843.52,509.3,843.53,507.39z"/>
	<path class="st16" d="M856.18,576.46c-0.01,3.83-0.02,7.66-0.03,11.48c-2.85,2.88-0.79,6.47-1.41,9.67
		c-2.48-4.88-1.05-10.46-2.77-15.47C854.54,581.12,852.02,576.32,856.18,576.46z"/>
	<path class="st17" d="M856.18,576.46c-3.32,0.48,1.52,6.99-4.22,5.69c-3.22-4.49-1.1-7.47,2.81-9.94
		C856.55,573.19,856.09,574.92,856.18,576.46z"/>
	<path class="st18" d="M843.52,513.14c4.17,0.82,2.83,3.41,1.78,5.78c-1.02,2.31-2.22,4.55-3.34,6.81c-1.24,0.24-2,0.05-1.35-1.46
		C841.58,520.56,842.55,516.85,843.52,513.14z"/>
	<path class="st16" d="M860.47,628.56c2.64,4.78,1.19,9.41-1.34,14.09c0-1.87,0-3.73,0-5.6
		C861.53,634.53,859.95,631.38,860.47,628.56z"/>
	<path class="st19" d="M840.61,524.27c0.45,0.49,0.9,0.97,1.35,1.46c-1.47,2.67-1.27,5.62-1.39,8.51c-0.89-0.92-1.77-1.85-2.65-2.77
		C838.36,528.9,838.84,526.35,840.61,524.27z"/>
	<path class="st16" d="M859.05,610.24c2.69,4.02,0.84,8.51,1.35,12.76C857.63,618.99,859.6,614.48,859.05,610.24z"/>
	<path class="st20" d="M803.99,525.75c0.92,1.46,1.84,2.91,2.76,4.37c-0.46,0.44-0.92,0.87-1.37,1.31
		C803.37,529.91,804.16,527.71,803.99,525.75z"/>
	<path class="st21" d="M799.75,510.24c0.93,4.86,4.39,8.96,4.25,14.15c-4.69-4.11-4.52-10.43-7.06-15.52
		C797.88,509.32,798.81,509.78,799.75,510.24z"/>
</g>
<g id="Groupe_1" transform="translate(618 226)">
	<g id="Rectangle_1" transform="translate(-618 63)">
		<rect x="-290" y="84.7" class="st22" width="224" height="81.37"/>
		<rect x="-289.66" y="84.97" class="st23" width="223.32" height="80.84"/>
	</g>
	<g id="Rectangle_2" transform="translate(-618 352)">
		<rect x="-290" y="-50.59" class="st24" width="224" height="81.37"/>
		<rect x="-289.66" y="-50.33" class="st23" width="223.32" height="80.84"/>
	</g>
	<g id="Rectangle_3" transform="translate(-618 877)">
		<rect x="-290" y="-296.37" class="st25" width="224" height="81.37"/>
		<rect x="-289.66" y="-296.11" class="st23" width="223.32" height="80.84"/>
	</g>
	<g id="Rectangle_4" transform="translate(-618 624)">
		<rect x="-290" y="-177.93" class="st26" width="224" height="81.37"/>
		<rect x="-289.66" y="-177.66" class="st23" width="223.32" height="80.84"/>
	</g>
	<g id="Rectangle_5" transform="translate(-618 -226)">
		<rect x="-290" y="220" class="st27" width="224" height="81.37"/>
		<rect x="-289.66" y="220.27" class="st23" width="223.32" height="80.84"/>
	</g>
</g>
</svg>
