<?xml version="1.0" encoding="utf-8"?>
<!-- Generator: Adobe Illustrator 24.1.0, SVG Export Plug-In . SVG Version: 6.00 Build 0)  -->
<svg version="1.1" id="Calque_1" xmlns="http://www.w3.org/2000/svg" xmlns:xlink="http://www.w3.org/1999/xlink" x="0px" y="0px"
	 viewBox="0 0 1132.1 668.5" style="enable-background:new 0 0 1132.1 668.5;" xml:space="preserve">
<style type="text/css">
	.st0{fill:#FDFDFD;}
	.st1{fill:#CACBE0;}
	.st2{fill:#FEFEFE;}
	.st3{fill:#FCFCFD;}
	.st4{fill:#CBCCE0;}
	.st5{fill:#C6C7DD;}
	.st6{fill:#C5C7DD;}
	.st7{fill:#E4E4EF;}
	.st8{fill:#DADBE9;}
	.st9{fill:#E1E2ED;}
	.st10{fill:#F2F2F7;}
	.st11{fill:#F3F3F8;}
	.st12{fill:#F6F7F9;}
	.st13{fill:#E4E5EF;}
	.st14{fill:#FDFDFE;}
	.st15{fill:#CCCDE1;}
	.st16{fill:#F9F9FB;}
	.st17{fill:#F1F1F6;}
	.st18{fill:#EEEFF5;}
	.st19{fill:#E6E7F1;}
	.st20{fill:#F4F4F8;}
	.st21{fill:#C3BED0;}
	.st22{fill:none;stroke:#707070;}
	.st23{fill:#D1D3E4;}
	.st24{fill:#FEF8F2;}
	.st25{fill:#F2E6E9;}
	.st26{fill:#464E9F;}
</style>
<g>
	<path class="st0" d="M415.6,500.4c-7.8,3.4-16.2,4-23.7,0.5c-12.3-5.7-25.8-7.5-38.2-13.5c-10.1-4.9-20.9-9.2-31.3-13.9
		c-11.1-5.1-21.6-11.6-32.2-17.7c-2.3-1.3-4.7-3.4-4.3-6.8c0.4-3.2,2.9-4.9,5.6-5.7c16.9-4.7,33.8-10.8,51.5-9
		c15.5,1.6,30.9,0.6,46.4,1.2c4.7,0.2,9.2-0.5,14.2-2.1c-3-4.3-6.6-6.9-11.3-8.9c-26.2-11.5-46.6-28.6-56.3-56.9
		c-3.7-10.6-8-20.9-8.8-32.2c-0.2-3.5-1-7,0-10.4c1.2-4.2,1.1-8.2,0.1-12.5c-0.6-2.7-0.8-5.6-0.5-8.4c0.9-6.8,5.3-9.8,12-8.1
		c14.7,3.7,27.6,11.1,39.7,20.1c1.5,1.1,2.8,3.2,4.8,1.9c2.2-1.4,0.6-3.4,0-5c-5.1-14.4-7-29.4-9.9-44.3c-1.7-8.6,2.4-17,0.6-25.8
		c-0.5-2.7,4.8-6.3,9.8-5c21,5.5,37.7,18.8,54.7,31.3c3.4,2.5,5.8,6.5,9.4,9.2c3.5,2.5,5.2,2,5.7-2c3-23.9,16.6-42.8,30.1-61.6
		c6.5-9.1,14.2-8.1,19.7,1.7c2.5,4.5,6.7,7.8,8.8,12.6c1.3,2.9,4.2,2.2,6.8,1c6.2-2.7,12.1-6,18.6-8.3c5.6-2,6.9-8.5,8.7-13.8
		c0.8-2.3,0.2-5.4,3.3-6.5c1.5,0.6,2.4,1.7,2.7,3.3c-0.6,12.5-4.3,22.6-18.1,26.5c-6.9,1.9-12.8,6.5-19.6,9.1
		c-3.8,0.7-5.4-2.1-7-4.7c-3.3-5.4-6.9-10.6-10.9-15.6c-1.9-2.4-4.3-3.7-6.4-0.9c-14.7,19.5-30.1,38.8-30.5,65c0,3.6,0,7.2,0,10.8
		c-1.2,8.3,2.8,16.1,2.5,23.5c1.9-9.5,5.6-19.3,10.8-28.5c5.2-9.3,8-10,17.3-4.1c6,3.8,11.7,7.8,17,12.5c6.2,5.4,6.7,5.3,12.1-1.1
		c1.2-1.4,2.3-3,4.2-3.7c0.7-0.2,1.4-0.2,2.1,0c2.9,0.8,3.2,3.9,5.2,6c3.1-1,4-4.2,6-6.3c3.9-4.3,5.9-4.5,9.6,0.1
		c7.4,9.2,13.4,19.3,18.5,29.9c7.5,15.7,13.9,31.8,14.6,49.6c0,5.6-0.1,11.2,0.9,16.8c0,1.9-0.8,3.7-1,5.6
		c-4,13.2-6.8,26.8-10.2,40.2c-1.7,3.8-0.5,8-1.5,11.9c-0.3,1.4-0.8,2.7-1.1,4.2c-2.2,7-7,12.6-10.9,18.7c-1,1.6-2.4,4.1-4.8,3
		c-2.1-1-1.7-3.6-1.7-5.7c-0.2-4.9,0.3-9.7-0.6-14.6c-2.6-14.8-12.6-22.2-25.9-26.3c-2.9-0.9-5.8-1.7-8.3-3.5
		c-1.8-1.2-4-1.9-5.6-3.5c-5.3-12.1-6.5-24.6-3.9-37.5c2.6-6,8-9.3,13.5-11.7c14.8-6.3,16.1-19.9,17.1-32.7c0.6-8.4-1.9-17.1-6-26
		c-6.5,10.1-11.2,20.3-14.6,31.1c-2.9,9.4-5.5,18.9-6.4,28.7c-0.3,3-1.1,6-2.6,8.7c-2.8,3.5-4,9.2-10.5,7.6
		c-2.5-7.7-0.1-15.3,0.7-22.8c1.5-14.1,5.8-27.5,12.5-40.1c2.3-4.4,1.7-7.2-2.4-10c-6-4.1-11.5-8.9-17.3-13.3
		c-3.5-2.6-5.7-2-7.7,1.8c-5.2,10.2-7.8,21.1-9.7,32.2c-4.4,25.2-3.2,50,7.8,73.7c8.8,18.9,21.4,35,36.6,50.1c0.1-3.2-1.8-5-1.8-7.3
		c0.8-4.1-0.5-7.2-4.4-9.1c-3.7-6.5-6.7-13.2-8.1-20.6c0.3-2.8,2.1-3.8,4.7-3.5c1.5,0.2,2.5,1.4,3.8,2.1c5.4,12.2,9.4,25,16.8,36.3
		c4.2,6.6,10.1,11.7,14.8,17.9c0.8,1.1,2.2,1.6,3.6,1.9c6.5,1.5,8,3.4,5.6,9.5c-2.5,6.3-3,12.8-2.4,19.4c0.2,2.8,1.1,5.1,4.3,5.6
		c1.9,0.3,3.9,0.4,5.3-1.1c1.8-1.9,0.1-3.4-0.9-5c-2.5-3.9-4.8-7.8-0.2-11.8c0.7-0.3,1.5-0.5,2.2-0.6c14.9,1.6,29.7,4,44.6,5.7
		c17.8,2.1,35.5,1.4,53.2,0.5c2.8-0.2,5.6-1.2,8,1.2c-3.6,5.6-9.3,6.1-15,5.3c-11.7-1.7-23.2-1.4-34.9-0.1
		c-7.8,0.8-15.4-3.3-23.4-3.2c-7.6,0.1-15.2,1.1-22.8-0.5c-3.3-0.7-3,2.1-2.9,4.8c0.1,3.5,2.2,8.7-2.4,10c-6,1.7-12.7,4.4-18.8-0.5
		c-2.3-1.8-2.6-4.3-2.5-6.9c0.1-6.8-0.1-13.6,0.1-20.4c0.1-3.2-0.5-5.8-4-6.3c-4-0.6-4.1,3.4-4.1,5.2c0,8.5-4.5,10.6-12.2,11.9
		c-10.6,1.9-20.9,4.9-31.7,2.1c-1.1-0.3-2.1-0.9-3.1-1.3c1.2-2,3.1-2.9,5.2-3c10-0.8,19.8-3.3,29.8-4.2c2.2-0.1,4.4,0.8,5.3,0.5
		c-0.3,0.2-2-0.5-3.5-0.4c-29-6.8-54.3-20.5-76.4-40.3c-3.6-3.3-7.7-5.3-12.3-6.4c-27.3-6.6-55-9-83.1-6.7c-16.4,1.4-32.7,3-48.7,7
		c-2.5,0.6-5.1,0.8-7.9,3.4c6.6,4.7,13.4,8.7,20.3,12.4c28.9,15.4,58.8,28.2,91.3,34.2C410.5,497.3,413.7,497.4,415.6,500.4z"/>
	<path class="st0" d="M551,204.5c-0.5-1-1-1.9-1.4-2.9c1.3-0.6,2.2-1.6,2.7-3c1.4-3.9,2.5-1.9,4.1,0c4.3,5.3,4.1,12.2,6.9,18.1
		c3.3,6.8,8.7,8.1,14.2,2.8c2-2,3.9-4,5.7-6.2c4.7-5.8,9.7-6.3,14.5-0.8c12,13.6,20.9,29.2,28.2,45.6c2.7,6,4,13.4,4,20.5
		c0,1.4,0,3,1.5,3.7c1.7,0.8,2.5-0.8,3.4-1.8c10.7-11.2,22.1-21.8,35.6-29.2c9.1-5,18.4-10.2,28.7-12.7c7-1.7,9.2,2.1,10.3,8.9
		c2.5,15-1.9,29.1-3.1,43.7c-0.7,7.7-3.6,14.5-6.3,21.4c-0.8,2.1-1.7,4.4,0.1,5.9c2.6,2.1,3.4-1.3,4.9-2.3
		c13.4-8.7,26.7-17.8,42.8-21.1c5.2-1.1,10.2,3.7,10.5,10.4c0.7,15.5-0.5,30.8-4.9,45.8c-3.8,13.1-8.2,25.8-15.8,37.2
		c-10.6,15.8-25.7,26.5-42.1,34.9c-5.6,2.9-10.5,5.8-16.3,10.5c20,2.3,38.5,2.5,57.2,0.6c13.9-1.4,27.4,2.2,40.8,5.3
		c4.3,1,8.5,2.6,13,2.9c3.4,0.2,6.7,0.9,7.7,4.8c1,3.8-1.2,6.6-4.1,8.2c-9.1,5.2-18.1,10.6-27.7,14.7c-4.3,1.9-8.3,4.3-12.1,6.6
		c-11.6,7-24.3,11.2-36.8,15.4c-12.5,4.2-25.1,8.7-38.4,10.6c-4.2,0.6-8.4,0.2-12-2.7c1.5-3.6,4.9-3.1,7.8-3.7
		c39.8-7.4,75.9-23.9,110.4-44.5c0.8-0.5,1.6-1,2-2.1c-0.7-2.1-2.9-1.9-4.6-2.3c-43-10.5-86.3-12-129.7-2.5
		c-7.5,1.6-13.8,4.8-19.6,10.2c-20,18.2-44,29.3-69.8,36.7c-2,0.6-4.1,1.1-6.2,0.1c-2.5-2.4-1.3-4.9-0.1-7.4c1-1.6,2.3-2.9,3.9-4
		c16.5-6.3,32.6-13.3,47.6-22.6c23.3-14.4,43-32.6,57.2-56.2c11.2-18.5,15.5-39.1,16.8-60.4c0.2-3.4-1.2-4.2-4.2-3.6
		c-16.3,3-31.9,7.9-46.2,16.5c-2.8,1.7-4.4,4-4.4,7.4c-0.7,33.7-15.4,61.8-35.4,87.8c-5.9,7.7-12.8,14.3-19.8,21
		c-2,2-4.3,3.7-7.4,3.5c-1.7-0.4-2.4-1.7-2.7-3.2c-0.3-2.3,0.2-4.4,1.8-6.2c1-1,2.1-2,2.9-3.1c13-12.9,24.5-27,33.2-43.3
		c8.5-15.8,12.9-32.5,13.8-50.3c0.8-16.3-0.9-32.2-5.6-47.9c-1.1-3.8-2.2-7.6-3.8-11.3c-4.7-11.3-5.2-11.4-14.8-3.7
		c-2.2,1.8-4.3,3.6-6.8,5c-1.9,1.1-4,2.9-6.1,0.1c-1-4.2,1.4-7.7,2.2-11.5c0.8-2,2.2-3.6,3.6-5.2c4-4.1,8.9-7,13.8-9.7
		c5.9-3.2,8.6-2.5,12.3,3.3c5.9,9.3,10.2,19.4,12.1,30.1c3.7-12.6,3.7-25.6,2.9-38.7c-0.5-7.6-3-14.7-6.1-21.6
		c-5.7-12.4-13.4-23.7-21.3-34.8c-5.2-7.2-5.8-7-11.5,0.2c-2.1,2.7-3.8,6-7.1,7.6c-14.9-0.1-21-5.1-23.1-19
		C554.3,208.7,554.1,205.8,551,204.5z"/>
	<path class="st1" d="M524.2,494.7c-12.2,1.9-24.4,3.8-36.7,5.7c-12.1,0.8-24.3,2.6-36.3,2.1c-11.9-0.5-23.8,0.2-35.6-2.1
		c-34.8-5.9-67.2-18.4-98.1-35c-8.8-4.7-17.2-10-26.9-15.7c9.8-5.2,19.2-6.7,28.5-8.2c21-3.3,42.3-5.4,63.6-4.4
		c18,0.8,35.8,3.2,53.4,7.2c8.7,2,13.6,8.6,20,13.5c20.8,16,43.8,27.9,69.4,34.2C526.5,493.6,525,494,524.2,494.7z"/>
	<path class="st1" d="M556.6,492c30.2-7.8,57.6-20.6,80.3-42.5c6.6-6.4,16.4-6.5,25-8c18.7-3.2,37.5-5.4,56.5-4.4
		c23.3,1.2,46.6,3.6,69.2,10c1.5,0.4,3.2,0.7,4.1,3.1c-12.1,7.7-24.7,14.8-37.6,21.2c-22.5,11.1-45.8,20.2-70.5,25.5
		c-5.7,1.2-11.4,2.4-17.1,3.6c-0.5,0-0.9,0-1.4,0c-10.8,2.6-21.9,1.7-32.8,2.2c-12.9,0.6-26-1.6-39-3c-11.8-1.3-23.6-3.2-35.3-4.9
		c-0.7-0.5-1.5-1-1.8-1.9C556.4,492.5,556.5,492.3,556.6,492z"/>
	<path class="st1" d="M526.9,483.5c-22.3-6.2-42.8-16.3-61.6-29.6c-21.7-15.3-40.4-33.4-52.5-57.6c-9.1-18.1-12.1-37.7-13.8-57.5
		c-0.3-3.4,1.7-3.3,4-2.9c17.5,2.9,34.1,8.3,49.6,16.9c3.1,1.7,5.5,3.7,5.4,8.1c-0.8,31,11.5,57.4,29.9,81.3
		c10.6,13.8,22.2,26.6,36.5,36.7c1.3,1,2.8,1.7,4.2,2.5C528,482.2,527.5,482.8,526.9,483.5z"/>
	<path class="st1" d="M428.1,433.1c-56-16.6-84.5-41.5-95.7-93.6c-2.5-11.5-3.4-23-1.6-34.7c0.7-4.4,2.5-5.2,6-4.2
		c19.2,6,35.9,15.9,49.8,30.5c1.8,1.9,2.2,4,2.2,6.4c1.1,35.9,14.9,66.7,38.3,93.5C427.4,431.4,427.5,431.9,428.1,433.1z"/>
	<path class="st1" d="M454.5,344c-18.3-9.9-36.7-17-56.9-18.4c-3.5-0.2-4.7-3.1-5.7-5.5c-6.9-16.7-11.7-33.9-13.2-52.1
		c-0.6-7.5-1.1-14.9-1.2-22.4c0-3.9,1.3-4.9,5.1-3.4c23.4,9.4,44,22.8,61.6,40.9c3,3,3.8,6.2,3.1,10.8c-2,13.9,1,27.4,5.1,40.6
		C453.3,337.3,455.2,339.9,454.5,344z"/>
	<path class="st1" d="M502.9,422.9c2.8,6.6,5.6,13.2,8.4,19.8c2.5,2.3,3.6,5.4,4.3,8.6c1.5,3.6,2.9,7.3,4.6,11.6
		c-3.1,0.2-4.7-1.4-6.3-3c-18.8-18.7-34.6-39.5-41.8-65.5c-8.9-32.2-5-63.4,8.7-93.6c1.9-4.1,3.5-5.3,7.6-1.8
		c6.9,5.9,14.5,11.1,21.8,16.6c2.7,2,3.9,3.9,1.8,7.5c-9.1,16.4-14.2,34-14.8,52.8c-0.1,4-0.8,7.9-1.2,11.8c0,1-0.2,2-0.7,2.8
		c-1.7,2.9-4.2,4.9-6.4,7.3c-6,6.8-5,11.9,3.3,15.7c1.9,0.9,3.9,1.5,5.7,2.6C501.4,417.1,502.6,419.7,502.9,422.9z"/>
	<path class="st1" d="M457.9,283.4c-0.2-17,7.8-31.1,16.3-44.9c4.3-7,9.4-13.4,14.1-20.1c3.3-4.8,6.5-4.5,9.6,0.2
		c3.8,5.6,7.7,11.2,11.4,16.9c1.3,2,2,4.3,5,4.3c0.8,0.9,0.8,1.9,0.2,2.9c-5.2,2-5.9,5.8-4.5,10.7c2.6,9.7,6.1,19,10.9,27.8
		c2.2,4,5.9,8.1,3.3,13.5c-1.4,1.6-2.8,3.1-4.1,4.7c-6.1,7.7-6.1,7.7-13.6,0.9c-5.7-5.2-12.1-9.6-18.6-13.7c-7.3-4.7-8.4-4.3-13,3.4
		c-5.6,9.5-8.7,20-12.4,32c-3.1-9.4-5.2-17.4-4.8-25.9C459,291.8,459,287.6,457.9,283.4z"/>
	<path class="st2" d="M576.6,381c-1.3,9.3-4.5,17.9-7.7,26.3c-3.8,10.1-3.9,20.6-5.2,30.9c-0.2,1.8,0,3.9-0.8,5.5
		c-1.4,2.8-1.7,7.5-5.1,7.6c-3,0.1-1.9-4.7-3.3-7c-2.8-4.6-5.8-9.1-9-13.4c-2.9-3.9-0.8-5.5,2.6-6.5c11-3.3,10.7-3.3,11.4-14.5
		c0.5-8.4,2.6-16.6,0-25c-2-6.4-7.2-9.1-13.4-6.9c-10,3.6-18.8,9.1-27.3,15.3c-2.7,2-5.8,2.3-8.4,0c-2.5-2.3-1.7-5.1,0-7.7
		c1.6-2.4,3.7-4.1,6.2-5.6c5.2-3.1,10.3-6.5,15.4-9.8c2.4-1.6,4.7-3.5,5.3-6.3c2.9-13.1,6.7-26.1,3.1-39.8c-1.2-4.7-2-9.6-3-14.4
		c-0.8-3.5,0.4-6.3,3.4-7.6c3-1.3,5.1,1.5,6.2,3.6c6.5,12.8,14.3,24.7,19,38.6c3.4,10.2,6,20.6,9.6,30.6
		C576.2,376.9,576.3,379.1,576.6,381z"/>
	<path class="st1" d="M580.6,298.9c0.1,4.1-2.2,7.5-3,11.4c-0.4,1.8-0.5,3.8-1.8,5.3c-3.9,2.6-3.1,6.1-1.8,9.7
		c1.5,4.7,1,9.7,2.3,14.4c1.1,4.6,3.7,8.7,4.5,13.3c0.6,4.1-0.2,8.3,1.2,12.3c0.4,1.9,0.6,3.9,0.6,5.8c-0.5,3,0.9,6.6-2.8,8.5
		c-2.9-1.8,0-5.2-2-7.3c-1.2-19.8-8.6-37.7-17.9-54.9c-4.3-8-9.2-15.8-14.7-23.1c-2.6-3.4-4.2-3.7-6.7,0c-2.3,3.4-4.4,7.1-7.8,9.8
		c-2.9-2.7-2-7.1-5.2-9.2c1.1-7-0.3-14-0.9-21c0.4-1.1,1-1.9,2.2-2c4.2,1.4,6.4,5.4,9.7,7.9c3.9,3.1,7.2,2.1,8.1-2.8
		c0.9-4.5-0.2-8.5-3.1-12.5c-5.2-7-1.5-14,1.7-20.4c2.7-5.6,7.9-6.9,13.8-5.4c5.5,1.5,8.2,5.2,8.5,10.7c0.1,1.9,0.1,3.7,0,5.6
		c-0.1,4.1-2.2,7.5-3.3,11.3c-0.9,2.5-1.9,5-2.4,7.7c-3.6,9.6-2,17.8,5.5,25.2c3.2,3.2,5.5,4.4,9.3,1.3
		C576.2,299,578,297,580.6,298.9z"/>
	<path class="st1" d="M558.1,484.9c-0.5,2.4-1,4.7-1.5,7.1l0,0c-1,0.9-0.9,1.9,0,2.8c-1,3.9-0.6,7.3,2.5,10.3c1.6,1.5,4.2,3,2.5,5.8
		c-2.3,3.8-6.5,2.7-10,3.1c-3.2,0.4-4-2.5-4.3-4.6c-0.8-7.2-1.5-14.5,1.5-21.5c2.8-6.7,2.7-6.7-4-7.9c-1-0.2-2-1.2-2.8-2
		c-15.8-16-27.1-34.4-32-56.5c1.9-1,3.8-1.2,5.6,0.1c3.3,3.5,8.1,3.8,12.1,4.9c17.7,5,25.3,22.1,23.3,40.7c-0.2,1.6,0,3.2,0,6.4
		c6-7.7,10.8-14.5,14-22.4c2-0.5,2.2,1.1,2.7,2.3c0.2,1.3,0.1,2.6-0.2,3.9c-1.1,2.5-1.3,5.3-2.5,7.8c-1.1,1.7-1.7,3.5-1.5,5.5
		c-1.6,1.8-0.8,4.2-1.6,6.3c-0.2,0.6-0.5,1.2-0.8,1.7C560,480.7,557,481.7,558.1,484.9z"/>
	<path class="st1" d="M505.9,380.6c2-26.1,9.5-50.3,24.6-73.8c4.2,14.5,9.2,26.8,5.7,41.6c-2.8,11.8-7.4,19.9-18.6,24.5
		C513.3,374.7,509.7,378,505.9,380.6L505.9,380.6z"/>
	<path class="st1" d="M555.3,408.8c0,0.7,0,1.4,0,2.1c-0.2,11.2-4.6,14-14.9,8.8c-9.5-4.8-18.8-10.2-28.3-15.4
		c0.2-2.2,2.2-3.1,3.9-4.2c9-5.4,18-10.8,27.1-16.2c7.5-4.5,9.2-3.8,12.1,5.1C555.2,395.7,555.1,402.3,555.3,408.8z"/>
	<path class="st3" d="M566.4,458.1c0.1-1.4,0.1-2.8,0.2-4.1c1.5-2-0.4-3.8-0.1-5.8c0.6-4.2-1.3-8.7,1.3-12.6
		c2.2,2.3,1.7,4.5,0.7,5.9c4.4-12.5,7.5-26.4,9.3-40.6c1.2-3.4,1.9-6.8,1.3-10.4c-2.1-6-1.2-12.2-1.4-18.3c2.3,1.9,1,4.6,1.5,7
		c1.6,2,0.7,3.8,0.1,5.8c1.5-4.6,3-9.3,1.3-14.2c0-1.8,0-3.7-0.1-5.6c-1.8-4.1,0.5-8.7-1.3-12.8c-1.4-4.2-4-8-4.3-12.6
		c-0.5-3.5-2.1-7,1-10.2c3.2,1.5,3.8,4.7,4.8,7.4c12.3,34.7,10.6,69.1-2.5,103.2c-2.6,6.7-4.3,13.9-9.7,19.3
		C567.3,460,566.2,460,566.4,458.1z"/>
	<path class="st1" d="M514.2,242.7c0-1,0.1-1.9,0.1-2.9c5.3-4.4,11.5-7.7,17.8-9.4c14-3.6,17.6-13.6,18.9-25.9
		c1.5-0.8,3.1-5.4,4.3,0.2c0.2,0.9,0.7,1.8,0.6,2.7c-1.1,15.7,9.5,19.9,21.9,22.4c0.1,0.3,0.2,0.6,0.4,1c-2.7,7.3-4.6,8.2-11,5.4
		c-1.7-0.7-3.3-1.6-5-2.3c-6.6-4.6-12.5-3.1-19.1,0.9c-8.4,5.1-15.5,11.8-23,18c-1.5,0.2-2.7-0.5-3.7-1.6
		C515,248.6,512.4,246.2,514.2,242.7z"/>
	<path class="st0" d="M514.2,242.7c1,2.8,1.9,5.5,2.9,8.3c4.3,4.1,4.8,10.1,7.7,14.9c0.3,0.6,0.5,1.2,0.6,1.9c0.8,1.9-0.9,3.9,0,5.8
		c1.5,7.1,4.7,14.1-0.1,21.2l-0.6,0l-0.6,0c-0.4-4.7-2.6-8.8-5-12.8c-5.8-9.7-9.2-20.3-11.8-31.1C506,244.4,508.1,242.2,514.2,242.7
		z"/>
	<path class="st1" d="M502.9,422.9c-1.1-2.6-3.1-4.2-5.5-5.6c0.9-2.2,1.3-4.4,0.7-6.8c-2-7-2.3-14.2-3.5-21.3c0.5-0.5,1-1.1,1.5-1.7
		c4.5-0.6,6.1-5.2,9.8-6.9l0,0c-0.3,13.4,0.2,26.6,4.3,39.5c-0.9,0.8-1.9,0.8-2.8,0.1C505.2,419.9,503.2,420,502.9,422.9z"/>
	<path class="st4" d="M579.3,400.4c-0.8,14.8-3.9,29-11.1,42.3c-0.1-2.4-0.2-4.8-0.3-7.2c2.4-13.8,6.1-27.3,10-40.8
		C581.6,395.8,579.7,398.3,579.3,400.4z"/>
	<path class="st5" d="M555.3,408.8c-2.4-6.6-2.3-13.2,0-19.8C557.3,395.7,557.2,402.2,555.3,408.8z"/>
	<path class="st3" d="M515.7,451.2c-2.2-2.5-3.5-5.4-4.3-8.6C516,443.9,517.8,446.6,515.7,451.2z"/>
	<path class="st2" d="M515.2,413.2c1.5,0.3,2.8,0.9,2.7,2.7c-0.1,1.1-1.1,1.3-2.1,1.2c-1.2-0.2-2.2-1-2.3-2.2
		C513.3,413.5,514.4,413.4,515.2,413.2z"/>
	<path class="st6" d="M457.9,283.4c2.2,4.2,2.2,8.4,0,12.7C457.9,291.8,457.9,287.6,457.9,283.4z"/>
	<path class="st7" d="M579.3,400.4c-0.4-1.9,0.6-4.2-1.5-5.6c0.5-1.4,0.9-2.9,1.4-4.3C581.5,393.8,581.3,397.1,579.3,400.4z"/>
	<path class="st8" d="M524.2,494.7c0.5-0.9,0.9-1.8,1.4-2.7c1.7,0,3.1,0.6,5.5,2.7C528,494.7,526.1,494.7,524.2,494.7z"/>
	<path class="st3" d="M507.3,420.2c0.9,0,1.9,0,2.8-0.1c1.9,0.2,4.2-0.7,5.6,1.5c-1.9,0-3.7-0.1-5.6-0.1
		C509,421.5,507.9,421.3,507.3,420.2z"/>
	<path class="st9" d="M566.5,448.2c2,1.9,1.9,3.8,0.1,5.8c-0.2-1.1-0.3-2.2-1.4-2.8C565.1,450,565.4,448.9,566.5,448.2z"/>
	<path class="st3" d="M521.9,463.2c1,1.9,1.6,2.6,1.8,3.3c0.1,0.2-0.9,1.1-1.3,1c-0.9-0.1-1.7-0.8-1.5-1.8
		C520.9,465.1,521.3,464.5,521.9,463.2z"/>
	<path class="st10" d="M556.6,494.8c-1.1-0.3-3,0.7-3.1-1.2c0-1.5,1.8-1.5,3.1-1.7c0.5,0.9,1,1.9,1.4,2.8
		C557.6,494.8,557.1,494.8,556.6,494.8z"/>
	<path class="st1" d="M565.2,473.7c13.1-8.8,22.8-20.8,31.9-33.3c14.5-20,24.4-42.1,28.3-66.6c0.3-2.1,0.7-4.3,0.3-6.3
		c-2-9.7,3.3-14.2,11.3-18c13.7-6.4,27.9-10.9,42.7-13.7c2.6-0.5,5.6-0.8,5.2,3.3c-2.1,19.8-4.7,39.5-14.1,57.5
		c-14.2,27.1-35.6,47.4-61.4,63.2c-15.2,9.3-31.1,17.5-48.4,22.2c-1.3-1.4-1-2.8,0-4.2l0,0C562,476.1,562.9,474.2,565.2,473.7z"/>
	<path class="st1" d="M657,431.8c3.1-4.4,6.1-8.7,9.1-13c17.4-24.1,28.3-50.5,28.8-80.6c0-3.6,1.6-6.2,3.9-8.7
		c13.1-14.1,29.5-22.8,47.7-28.4c4.9-1.5,5.9,0,6.4,4.7c3.1,28.4-4.7,54.2-19,78.2c-7.7,12.9-19.7,21.9-32.3,29.7
		c-12.6,7.8-26.1,13.6-40.2,18.3C660.1,432.4,658.8,433,657,431.8z"/>
	<path class="st1" d="M627.1,345.1c7.1-16.3,11.4-31.6,9.6-47.2c-1.2-9.8,3.1-15.4,9.1-20.9c16.2-14.8,34.4-26.5,55-34.6
		c4.1-1.6,5.5-0.9,5.5,3.6c0.3,25.8-4,50.6-14.8,74.3c-1.8,3.9-4.1,5.2-8.4,5.7c-18,2.2-35.2,7.4-51,16.7
		C631.1,343.2,630,343.6,627.1,345.1z"/>
	<path class="st1" d="M567.9,459.5c11.8-23,19-47.5,19.4-73.3c0.3-16.3-2.1-32.7-8.2-48.1c-1-2.6-1.8-5.3-2.7-8
		c-2.6-3.1-1.7-6.8-1.8-10.2c-0.4-1.9,1.4-3.6,0.5-5.5c0.9-1.4,1.8-2.7,2.7-4.1c5.9,0.4,8.7-4.5,12.5-7.6c9.9-8,10.5-8.4,15,3.1
		c15.2,38.9,16.1,77.4-4.3,115.2c-8.7,16.1-20.3,29.7-33,42.7C565.2,462.5,565.2,462.3,567.9,459.5z"/>
	<path class="st1" d="M577.8,229.9c3.5-4.7,6.9-9.4,10.5-14c1.3-1.6,2.7-3.4,4.9-0.5c13.1,17.7,26.8,35.1,31.4,57.3
		c3.4,16.4,2.4,32.8-3.7,50c-3.2-11.6-6.2-22-11.6-31.4c-5.3-9.1-6.3-9.5-14.9-3.9c-3.7,2.4-7.3,5-11,7.5c-3.6-2-1-4.4-0.2-6.3
		c4.1-10.7,9.8-20.7,12.3-32c0.1-0.5,0.3-0.9,0.4-1.3c3.8-13.6,3-15.2-10-20.4C582.9,233.6,579.3,233.3,577.8,229.9L577.8,229.9z"/>
	<path class="st0" d="M577.8,229.8c6.2,2.7,12.5,5.3,18.7,8c3.3,1.4,4,3.6,3.5,7.3c-2.3,16-9.2,30.3-15.4,44.8
		c-0.7,1.5-2.7,2.9-1.1,5c0.2,2.1-2,2.6-2.8,4c-0.9,0.2-1.9,0.3-2.6,0.8c-9.6,6.5-9,6-16.6-2.4c-6.9-7.6-5.8-15.3-3.3-23.7
		c2.2-0.6,2.8,1.3,3.9,2.5c5.6,6.7,6.4,6.4,12.2,0.1c5.8-6.3,8.5-13.9,10.8-21.8c1.6-5.5-3.7-12.7-9.3-13.1
		c-2.1-0.1-2.9,1.2-3.7,2.6c-1.2,2.2-2.1,4.7-3.7,6.8c-2.5,3.4-3.5,1.2-4.5-1.3c0.2-5.2-2.9-7.9-7.2-9.8c-5-7.9,3.6-4.9,5.7-7.1
		c1.3,0.4,2.8,0.6,3.8,1.3C572.1,238.2,575.6,236.1,577.8,229.8z"/>
	<path class="st11" d="M560.9,477.9c0,1.4,0,2.8,0,4.2c-0.9,0.9-1.8,1.9-2.8,2.8C553.4,480.3,559.2,479.9,560.9,477.9z"/>
	<path class="st12" d="M565.2,473.7c-1,1.8-2.5,3.2-4.3,4.1c0.1-2.7-0.4-5.6,2.8-7.1C563.7,472,564,473.1,565.2,473.7z"/>
	<path class="st13" d="M567.9,459.5c-0.2,1.4-2.3,2.8,0,4.2c-0.5,1.2-1.5,1.5-2.7,1.5c-1.3-2.7-0.5-5,1.3-7.1
		C566.9,458.6,567.4,459,567.9,459.5z"/>
	<path class="st0" d="M494.6,389.2c1.7,0.6,2.7,1.9,2.6,3.7c-0.2,7,1.7,13.7,3.4,20.4c0.9,3.6-0.4,4.1-3.2,4
		c-18-7.2-18.8-11.3-5-25.4C493.2,391.1,493.9,390.1,494.6,389.2z"/>
	<path class="st14" d="M562.3,232.6c0.6,1.8,1.5,4.6-1.7,3.1c-6.2-2.9-3.4,2-4,4c-10.6,0-20.2,12.8-15.2,21.4
		c2.7,4.6,5.7,8.5,5.5,14.1c-0.1,3.9-1.2,6.6-4.9,8.5c-4.2,2.1-5.4-1.6-7.4-3.4c-2.8-2.5-5.2-5.4-7.7-8.1c-2-0.8-1.7-3-2.8-4.4
		c0-0.5,0-0.9,0-1.4c-1.6-4.7-4.8-8.8-4.2-14.1c7.7-11.5,19.7-17.5,31.3-23.7C555.1,226.6,558.6,231.1,562.3,232.6z"/>
	<path class="st1" d="M563.7,249.5c1.1,0,1.3,3.1,3,0.9c0.6-0.7,0.8-1.7,1.3-2.5c6-11.3,5.9-11.2,16-3.7c3.6,2.6,4.4,5.6,3,9.7
		c-2.9,8.9-6,17.5-12.4,24.8c-6.1,6.9-9.4,6.7-13.8-2.3c-1.3-2.7-1.2-5.4,0.1-8.1c0.3-4.5,6.1-7.8,2.8-13
		C563.7,253.3,563.7,251.4,563.7,249.5z"/>
	<path class="st15" d="M576.4,318.6c0,3.8,0,7.7,0,11.5c-2.8,2.9-0.8,6.5-1.4,9.7c-2.5-4.9-1-10.5-2.8-15.5
		C574.7,323.2,572.2,318.4,576.4,318.6z"/>
	<path class="st16" d="M576.4,318.6c-3.3,0.5,1.5,7-4.2,5.7c-3.2-4.5-1.1-7.5,2.8-9.9C576.7,315.3,576.3,317,576.4,318.6z"/>
	<path class="st17" d="M563.7,255.3c4.2,0.8,2.8,3.4,1.8,5.8c-1,2.3-2.2,4.5-3.3,6.8c-1.2,0.2-2,0-1.3-1.5
		C561.8,262.7,562.7,259,563.7,255.3z"/>
	<path class="st15" d="M580.7,370.7c2.6,4.8,1.2,9.4-1.3,14.1c0-1.9,0-3.7,0-5.6C581.7,376.6,580.1,373.5,580.7,370.7z"/>
	<path class="st18" d="M560.8,266.4c0.5,0.5,0.9,1,1.3,1.5c-1.5,2.7-1.3,5.6-1.4,8.5c-0.9-0.9-1.8-1.8-2.7-2.8
		C558.6,271,559,268.5,560.8,266.4z"/>
	<path class="st15" d="M579.2,352.4c2.7,4,0.8,8.5,1.3,12.8C577.8,361.1,579.8,356.6,579.2,352.4z"/>
	<path class="st19" d="M524.2,267.9c0.9,1.5,1.8,2.9,2.8,4.4c-0.5,0.4-0.9,0.9-1.4,1.3C523.6,272,524.4,269.8,524.2,267.9z"/>
	<path class="st20" d="M519.9,252.4c0.9,4.9,4.4,9,4.2,14.2c-4.7-4.1-4.5-10.4-7.1-15.5C518.1,251.4,519,251.9,519.9,252.4z"/>
</g>
<g id="Groupe_1" transform="translate(618 226)">
	<g id="Rectangle_1" transform="translate(-618 63)">
		<rect x="-277.8" y="-142.6" class="st21" width="224" height="81.4"/>
		<rect x="-277.5" y="-142.3" class="st22" width="223.3" height="80.8"/>
	</g>
	<g id="Rectangle_2" transform="translate(-618 352)">
		<rect x="-277.8" y="-277.8" class="st23" width="224" height="81.4"/>
		<rect x="-277.5" y="-277.6" class="st22" width="223.3" height="80.8"/>
	</g>
	<g id="Rectangle_3" transform="translate(-618 877)">
		<rect x="-277.8" y="-523.6" class="st24" width="224" height="81.4"/>
		<rect x="-277.5" y="-523.4" class="st22" width="223.3" height="80.8"/>
	</g>
	<g id="Rectangle_4" transform="translate(-618 624)">
		<rect x="-277.8" y="-405.2" class="st25" width="224" height="81.4"/>
		<rect x="-277.5" y="-404.9" class="st22" width="223.3" height="80.8"/>
	</g>
	<g id="Rectangle_5" transform="translate(-618 -226)">
		<rect x="-277.8" y="-7.3" class="st26" width="224" height="81.4"/>
		<rect x="-277.5" y="-7" class="st22" width="223.3" height="80.8"/>
	</g>
</g>
</svg>
